{"title":"Thunderbirds Are Go S01E22 Designated Driver 1080P WEB-DL AAC2 0","uid":13692992,"size":871814330,"categoryP":"video","categoryS":"hd___tv_shows","magnet":"?xt=urn:btih:c0585f59b4a5e21e61639116731c4e80c5cb1ba4&amp;dn=Thunderbirds+Are+Go+S01E22+Designated+Driver+1080P+WEB-DL+AAC2+0&amp;tr=udp%3A%2F%2Ftracker.leechers-paradise.org%3A6969&amp;tr=udp%3A%2F%2Fzer0day.ch%3A1337&amp;tr=udp%3A%2F%2Fopen.demonii.com%3A1337&amp;tr=udp%3A%2F%2Ftracker.coppersurfer.tk%3A6969&amp;tr=udp%3A%2F%2Fexodus.desync.com%3A6969","seeders":0,"leechers":0,"uploader":"jmanwf","files":1,"time":1456635055,"description":"Lady Penelope has tea with her great aunt Sylvia, then a pair of bumbling intruders attempt to kidnap the ladies. Alan to the rescue!\r\n\r\nVideo\r\nID : 2\r\nFormat : AVC\r\nFormat/Info : Advanced Video Codec\r\nFormat profile :   \r\nFormat settings, CABAC : Yes\r\nFormat settings, ReFrames : 4 frames\r\nCodec ID : avc1\r\nCodec ID/Info : Advanced Video Coding\r\nDuration : 22mn 6s\r\nBit rate : 5 127 Kbps\r\nWidth : 1 920 pixels\r\nHeight : 1 080 pixels\r\nDisplay aspect ratio : 16:9\r\nFrame rate mode : Constant\r\nFrame rate : 25.000 fps\r\nColor space : YUV\r\nChroma subsampling : 4:2:0\r\nBit depth : 8 bits\r\nScan type : Progressive\r\nBits/(Pixel*Frame) : 0.099\r\nStream size : 811 MiB (98%)\r\nLanguage : English\r\nEncoded date : UTC 2016-02-27 12:33:04\r\nTagged date : UTC 2016-02-27 12:35:48\r\nColor range : Limited\r\nColor primaries : BT.709\r\nTransfer characteristics : BT.709\r\nMatrix coefficients : BT.709\r\n\r\nAudio\r\nID : 1\r\nFormat : AAC\r\nFormat/Info : Advanced Audio Codec\r\nFormat profile : LC\r\nCodec ID : 40\r\nDuration : 22mn 6s\r\nBit rate mode : Variable\r\nBit rate : 125 Kbps\r\nMaximum bit rate : 185 Kbps\r\nChannel(s) : 2 channels\r\nChannel positions : Front: L R\r\nSampling rate : 48.0 KHz\r\nCompression mode : Lossy\r\nStream size : 19.8 MiB (2%)\r\nLanguage : English\r\nEncoded date : UTC 2016-02-27 12:33:04\r\nTagged date : UTC 2016-02-27 12:35:48","torrent":{"xt":"urn:btih:c0585f59b4a5e21e61639116731c4e80c5cb1ba4","amp;dn":"Thunderbirds+Are+Go+S01E22+Designated+Driver+1080P+WEB-DL+AAC2+0","amp;tr":["udp%3A%2F%2Ftracker.leechers-paradise.org%3A6969","udp%3A%2F%2Fzer0day.ch%3A1337","udp%3A%2F%2Fopen.demonii.com%3A1337","udp%3A%2F%2Ftracker.coppersurfer.tk%3A6969","udp%3A%2F%2Fexodus.desync.com%3A6969"],"infoHash":"c0585f59b4a5e21e61639116731c4e80c5cb1ba4","infoHashBuffer":{"type":"Buffer","data":[192,88,95,89,180,165,226,30,97,99,145,22,115,28,78,128,197,203,27,164]},"announce":[],"urlList":[]}}